<?xml version="1.0" encoding="UTF-8" standalone="no"?>
<!DOCTYPE svg PUBLIC "-//W3C//DTD SVG 1.1//EN" "http://www.w3.org/Graphics/SVG/1.1/DTD/svg11.dtd">
<svg width="100%" height="100%" viewBox="0 0 509 129" version="1.1" xmlns="http://www.w3.org/2000/svg" xmlns:xlink="http://www.w3.org/1999/xlink" xml:space="preserve" xmlns:serif="http://www.serif.com/" style="fill-rule:evenodd;clip-rule:evenodd;stroke-linejoin:round;stroke-miterlimit:2;">
    <g transform="matrix(1,0,0,1,-1093.3,-491.383)">
        <g transform="matrix(1,0,0,1,619.095,-135.588)">
            <g transform="matrix(1.12222,0,0,1.12222,-69.488,-74.0011)">
                <g>
                    <g transform="matrix(6.31166,0,0,6.31166,-3075.35,-1651.3)">
                        <path d="M577.569,369.318L577.569,368.116L581.809,362.304L577.573,362.304L577.573,360.591L584.477,360.591L584.477,361.792L580.237,367.605L584.473,367.605L584.473,369.318L577.569,369.318Z" style="fill:white;fill-rule:nonzero;"/>
                    </g>
                    <g transform="matrix(6.31166,0,0,6.31166,-3075.35,-1651.3)">
                        <path d="M588.828,369.441C588.143,369.441 587.553,369.306 587.057,369.034C586.561,368.763 586.181,368.375 585.915,367.871C585.649,367.367 585.517,366.767 585.517,366.071C585.517,365.395 585.65,364.803 585.917,364.296C586.184,363.789 586.561,363.394 587.046,363.111C587.532,362.828 588.105,362.687 588.764,362.687C589.23,362.687 589.656,362.76 590.042,362.904C590.429,363.049 590.762,363.264 591.044,363.548C591.325,363.832 591.544,364.182 591.7,364.598C591.856,365.015 591.934,365.491 591.934,366.028L591.934,366.548L586.245,366.548L586.245,365.338L589.995,365.338C589.992,365.116 589.94,364.919 589.838,364.745C589.735,364.572 589.595,364.436 589.418,364.338C589.24,364.24 589.036,364.191 588.806,364.191C588.573,364.191 588.365,364.243 588.18,364.347C587.995,364.451 587.849,364.591 587.741,364.769C587.633,364.946 587.576,365.147 587.571,365.372L587.571,366.603C587.571,366.87 587.623,367.104 587.728,367.304C587.833,367.505 587.983,367.66 588.176,367.771C588.369,367.882 588.599,367.937 588.866,367.937C589.051,367.937 589.218,367.912 589.369,367.86C589.519,367.809 589.649,367.734 589.757,367.635C589.865,367.535 589.946,367.413 590,367.268L591.913,367.324C591.833,367.752 591.659,368.125 591.391,368.442C591.122,368.759 590.771,369.005 590.336,369.179C589.902,369.354 589.399,369.441 588.828,369.441Z" style="fill:white;fill-rule:nonzero;"/>
                    </g>
                    <g transform="matrix(6.31166,0,0,6.31166,-3075.35,-1651.3)">
                        <path d="M593.004,369.318L593.004,362.772L595.028,362.772L595.028,363.966L595.096,363.966C595.215,363.534 595.41,363.212 595.68,363C595.95,362.789 596.264,362.683 596.622,362.683C596.718,362.683 596.818,362.689 596.92,362.702C597.022,362.715 597.117,362.734 597.206,362.76L597.206,364.571C597.106,364.537 596.976,364.51 596.816,364.49C596.655,364.47 596.512,364.46 596.387,364.46C596.14,364.46 595.918,364.515 595.72,364.624C595.523,364.733 595.368,364.885 595.256,365.08C595.144,365.274 595.088,365.502 595.088,365.764L595.088,369.318L593.004,369.318Z" style="fill:white;fill-rule:nonzero;"/>
                    </g>
                    <g transform="matrix(6.31166,0,0,6.31166,-3075.35,-1651.3)">
                        <path d="M599.656,369.429C599.238,369.429 598.868,369.358 598.546,369.218C598.223,369.077 597.969,368.864 597.783,368.578C597.597,368.293 597.504,367.934 597.504,367.502C597.504,367.139 597.568,366.832 597.696,366.582C597.823,366.332 598,366.129 598.224,365.973C598.448,365.816 598.707,365.698 599,365.617C599.292,365.536 599.605,365.481 599.937,365.453C600.309,365.419 600.609,365.382 600.836,365.344C601.063,365.306 601.229,365.25 601.333,365.178C601.436,365.105 601.488,365.002 601.488,364.869L601.488,364.848C601.488,364.629 601.413,364.46 601.262,364.341C601.112,364.221 600.909,364.162 600.653,364.162C600.377,364.162 600.156,364.221 599.988,364.341C599.821,364.46 599.714,364.625 599.669,364.835L597.747,364.767C597.804,364.369 597.951,364.013 598.188,363.699C598.425,363.385 598.752,363.138 599.168,362.958C599.584,362.777 600.085,362.687 600.67,362.687C601.088,362.687 601.473,362.736 601.825,362.834C602.177,362.932 602.484,363.074 602.745,363.26C603.007,363.446 603.209,363.674 603.353,363.944C603.496,364.214 603.568,364.522 603.568,364.869L603.568,369.318L601.608,369.318L601.608,368.406L601.556,368.406C601.44,368.627 601.291,368.815 601.111,368.968C600.931,369.122 600.719,369.237 600.476,369.314C600.233,369.39 599.96,369.429 599.656,369.429ZM600.299,368.065C600.524,368.065 600.726,368.02 600.907,367.929C601.087,367.838 601.231,367.712 601.339,367.551C601.447,367.391 601.501,367.204 601.501,366.991L601.501,366.369C601.441,366.4 601.37,366.429 601.286,366.454C601.202,366.48 601.11,366.504 601.011,366.527C600.911,366.549 600.809,366.569 600.704,366.586C600.599,366.603 600.498,366.619 600.402,366.633C600.206,366.664 600.039,366.713 599.901,366.778C599.763,366.843 599.658,366.928 599.585,367.032C599.513,367.135 599.477,367.258 599.477,367.4C599.477,367.616 599.554,367.781 599.709,367.895C599.864,368.008 600.061,368.065 600.299,368.065Z" style="fill:white;fill-rule:nonzero;"/>
                    </g>
                    <g transform="matrix(6.31166,0,0,6.31166,-3075.35,-1651.3)">
                        <path d="M606.921,365.585L606.921,369.318L604.838,369.318L604.838,362.772L606.819,362.772L606.819,363.974L606.892,363.974C607.036,363.574 607.284,363.259 607.633,363.03C607.983,362.801 608.399,362.687 608.882,362.687C609.342,362.687 609.742,362.79 610.081,362.996C610.421,363.202 610.685,363.489 610.874,363.857C611.063,364.225 611.156,364.654 611.153,365.146L611.153,369.318L609.069,369.318L609.069,365.555C609.072,365.191 608.98,364.907 608.794,364.703C608.608,364.498 608.35,364.396 608.021,364.396C607.802,364.396 607.61,364.444 607.443,364.539C607.277,364.634 607.149,364.77 607.06,364.946C606.97,365.122 606.924,365.335 606.921,365.585Z" style="fill:white;fill-rule:nonzero;"/>
                    </g>
                    <g transform="matrix(6.31166,0,0,6.31166,-3075.35,-1651.3)">
                        <path d="M614.839,369.412C614.356,369.412 613.917,369.287 613.522,369.037C613.127,368.787 612.812,368.412 612.576,367.912C612.34,367.412 612.223,366.791 612.223,366.049C612.223,365.279 612.345,364.646 612.589,364.149C612.833,363.652 613.154,363.284 613.55,363.045C613.946,362.806 614.373,362.687 614.831,362.687C615.174,362.687 615.468,362.746 615.713,362.864C615.957,362.982 616.159,363.133 616.318,363.318C616.477,363.502 616.598,363.694 616.68,363.893L616.723,363.893L616.723,360.591L618.806,360.591L618.806,369.318L616.744,369.318L616.744,368.257L616.68,368.257C616.592,368.458 616.467,368.647 616.305,368.824C616.143,369 615.941,369.142 615.698,369.25C615.455,369.358 615.169,369.412 614.839,369.412ZM615.563,367.788C615.816,367.788 616.032,367.716 616.211,367.573C616.39,367.429 616.528,367.227 616.625,366.966C616.721,366.704 616.769,366.397 616.769,366.045C616.769,365.687 616.722,365.379 616.627,365.12C616.532,364.862 616.394,364.663 616.213,364.524C616.033,364.385 615.816,364.315 615.563,364.315C615.305,364.315 615.086,364.386 614.907,364.528C614.728,364.67 614.593,364.87 614.5,365.129C614.408,365.387 614.362,365.693 614.362,366.045C614.362,366.397 614.409,366.704 614.502,366.966C614.596,367.227 614.732,367.429 614.909,367.573C615.087,367.716 615.305,367.788 615.563,367.788Z" style="fill:white;fill-rule:nonzero;"/>
                    </g>
                    <g transform="matrix(6.31166,0,0,6.31166,-3075.35,-1651.3)">
                        <path d="M623.183,369.441C622.495,369.441 621.905,369.3 621.412,369.017C620.919,368.735 620.54,368.34 620.274,367.833C620.009,367.326 619.876,366.737 619.876,366.066C619.876,365.393 620.009,364.803 620.274,364.296C620.54,363.789 620.919,363.394 621.412,363.111C621.905,362.828 622.495,362.687 623.183,362.687C623.87,362.687 624.46,362.828 624.953,363.111C625.446,363.394 625.826,363.789 626.091,364.296C626.357,364.803 626.49,365.393 626.49,366.066C626.49,366.737 626.357,367.326 626.091,367.833C625.826,368.34 625.446,368.735 624.953,369.017C624.46,369.3 623.87,369.441 623.183,369.441ZM623.196,367.869C623.446,367.869 623.657,367.792 623.831,367.639C624.004,367.485 624.137,367.272 624.229,367C624.321,366.727 624.367,366.412 624.367,366.054C624.367,365.69 624.321,365.372 624.229,365.099C624.137,364.826 624.004,364.613 623.831,364.46C623.657,364.306 623.446,364.23 623.196,364.23C622.937,364.23 622.719,364.306 622.541,364.46C622.364,364.613 622.229,364.826 622.137,365.099C622.044,365.372 621.998,365.69 621.998,366.054C621.998,366.412 622.044,366.727 622.137,367C622.229,367.272 622.364,367.485 622.541,367.639C622.719,367.792 622.937,367.869 623.196,367.869Z" style="fill:white;fill-rule:nonzero;"/>
                    </g>
                </g>
            </g>
            <g>
                <g>
                    <g transform="matrix(6.31166,0,0,6.31166,-3075.35,-1651.3)">
                        <path d="M577.599,372.591L580.211,372.591L582.427,377.994L582.529,377.994L584.745,372.591L587.358,372.591L587.358,381.318L585.304,381.318L585.304,375.957L585.231,375.957L583.134,381.262L581.822,381.262L579.725,375.927L579.653,375.927L579.653,381.318L577.599,381.318L577.599,372.591Z" style="fill:white;fill-rule:nonzero;"/>
                    </g>
                    <g transform="matrix(6.31166,0,0,6.31166,-3075.35,-1651.3)">
                        <path d="M588.679,381.318L588.679,374.772L590.762,374.772L590.762,381.318L588.679,381.318ZM589.723,374.01C589.43,374.01 589.179,373.912 588.968,373.718C588.758,373.523 588.653,373.288 588.653,373.012C588.653,372.74 588.758,372.506 588.968,372.311C589.179,372.117 589.43,372.02 589.723,372.02C590.018,372.02 590.27,372.117 590.479,372.311C590.688,372.506 590.792,372.74 590.792,373.012C590.792,373.288 590.688,373.523 590.479,373.718C590.27,373.912 590.018,374.01 589.723,374.01Z" style="fill:white;fill-rule:nonzero;"/>
                    </g>
                    <g transform="matrix(6.31166,0,0,6.31166,-3075.35,-1651.3)">
                        <path d="M594.167,377.585L594.167,381.318L592.083,381.318L592.083,374.772L594.065,374.772L594.065,375.974L594.137,375.974C594.282,375.574 594.529,375.259 594.879,375.03C595.228,374.801 595.644,374.687 596.127,374.687C596.588,374.687 596.987,374.79 597.327,374.996C597.666,375.202 597.931,375.489 598.12,375.857C598.308,376.225 598.402,376.654 598.399,377.146L598.399,381.318L596.315,381.318L596.315,377.555C596.318,377.191 596.226,376.907 596.04,376.703C595.854,376.498 595.596,376.396 595.267,376.396C595.048,376.396 594.855,376.444 594.689,376.539C594.523,376.634 594.395,376.77 594.306,376.946C594.216,377.122 594.17,377.335 594.167,377.585Z" style="fill:white;fill-rule:nonzero;"/>
                    </g>
                    <g transform="matrix(6.31166,0,0,6.31166,-3075.35,-1651.3)">
                        <path d="M601.778,377.585L601.778,381.318L599.694,381.318L599.694,372.591L601.71,372.591L601.71,375.974L601.782,375.974C601.93,375.571 602.172,375.255 602.509,375.028C602.845,374.801 603.258,374.687 603.747,374.687C604.207,374.687 604.608,374.789 604.948,374.992C605.289,375.195 605.554,375.481 605.743,375.85C605.932,376.22 606.025,376.652 606.022,377.146L606.022,381.318L603.938,381.318L603.938,377.555C603.941,377.191 603.85,376.907 603.666,376.703C603.481,376.498 603.221,376.396 602.886,376.396C602.667,376.396 602.475,376.444 602.308,376.539C602.142,376.634 602.013,376.77 601.921,376.946C601.828,377.122 601.781,377.335 601.778,377.585Z" style="fill:white;fill-rule:nonzero;"/>
                    </g>
                    <g transform="matrix(6.31166,0,0,6.31166,-3075.35,-1651.3)">
                        <path d="M609.163,381.429C608.745,381.429 608.375,381.358 608.053,381.218C607.73,381.077 607.476,380.864 607.29,380.578C607.104,380.293 607.011,379.934 607.011,379.502C607.011,379.139 607.075,378.832 607.203,378.582C607.331,378.332 607.507,378.129 607.731,377.973C607.956,377.816 608.214,377.698 608.507,377.617C608.799,377.536 609.112,377.481 609.444,377.453C609.816,377.419 610.116,377.382 610.343,377.344C610.571,377.306 610.736,377.25 610.84,377.178C610.943,377.105 610.995,377.002 610.995,376.869L610.995,376.848C610.995,376.629 610.92,376.46 610.769,376.341C610.619,376.221 610.416,376.162 610.16,376.162C609.884,376.162 609.663,376.221 609.495,376.341C609.328,376.46 609.221,376.625 609.176,376.835L607.254,376.767C607.311,376.369 607.458,376.013 607.695,375.699C607.932,375.385 608.259,375.138 608.675,374.958C609.091,374.777 609.592,374.687 610.177,374.687C610.595,374.687 610.98,374.736 611.332,374.834C611.684,374.932 611.991,375.074 612.252,375.26C612.514,375.446 612.716,375.674 612.86,375.944C613.003,376.214 613.075,376.522 613.075,376.869L613.075,381.318L611.115,381.318L611.115,380.406L611.063,380.406C610.947,380.627 610.799,380.815 610.618,380.968C610.438,381.122 610.226,381.237 609.983,381.314C609.74,381.39 609.467,381.429 609.163,381.429ZM609.806,380.065C610.031,380.065 610.233,380.02 610.414,379.929C610.594,379.838 610.738,379.712 610.846,379.551C610.954,379.391 611.008,379.204 611.008,378.991L611.008,378.369C610.948,378.4 610.877,378.429 610.793,378.454C610.709,378.48 610.617,378.504 610.518,378.527C610.419,378.549 610.316,378.569 610.211,378.586C610.106,378.603 610.005,378.619 609.909,378.633C609.713,378.664 609.546,378.713 609.408,378.778C609.27,378.843 609.165,378.928 609.093,379.032C609.02,379.135 608.984,379.258 608.984,379.4C608.984,379.616 609.061,379.781 609.216,379.895C609.371,380.008 609.568,380.065 609.806,380.065Z" style="fill:white;fill-rule:nonzero;"/>
                    </g>
                </g>
                <g>
                    <g transform="matrix(6.31166,0,0,6.31166,-3075.35,-1651.3)">
                        <path d="M618.909,372.591L620.86,378.983L620.933,378.983L622.884,372.591L625.245,372.591L622.301,381.318L619.492,381.318L616.548,372.591L618.909,372.591Z" style="fill:white;fill-rule:nonzero;"/>
                    </g>
                    <g transform="matrix(6.31166,0,0,6.31166,-3075.35,-1651.3)">
                        <path d="M626.187,381.318L626.187,374.772L628.271,374.772L628.271,381.318L626.187,381.318ZM627.231,374.01C626.938,374.01 626.687,373.912 626.477,373.718C626.267,373.523 626.161,373.288 626.161,373.012C626.161,372.74 626.267,372.506 626.477,372.311C626.687,372.117 626.938,372.02 627.231,372.02C627.527,372.02 627.779,372.117 627.987,372.311C628.196,372.506 628.301,372.74 628.301,373.012C628.301,373.288 628.196,373.523 627.987,373.718C627.779,373.912 627.527,374.01 627.231,374.01Z" style="fill:white;fill-rule:nonzero;"/>
                    </g>
                    <g transform="matrix(6.31166,0,0,6.31166,-3075.35,-1651.3)">
                        <path d="M631.983,381.412C631.5,381.412 631.061,381.287 630.666,381.037C630.271,380.787 629.956,380.412 629.72,379.912C629.484,379.412 629.366,378.791 629.366,378.049C629.366,377.279 629.488,376.646 629.733,376.149C629.977,375.652 630.297,375.284 630.693,375.045C631.09,374.806 631.517,374.687 631.974,374.687C632.318,374.687 632.612,374.746 632.856,374.864C633.1,374.982 633.302,375.133 633.461,375.318C633.62,375.502 633.741,375.694 633.823,375.893L633.866,375.893L633.866,372.591L635.95,372.591L635.95,381.318L633.887,381.318L633.887,380.257L633.823,380.257C633.735,380.458 633.61,380.647 633.448,380.824C633.286,381 633.084,381.142 632.841,381.25C632.598,381.358 632.312,381.412 631.983,381.412ZM632.707,379.788C632.96,379.788 633.176,379.716 633.355,379.573C633.534,379.429 633.671,379.227 633.768,378.966C633.865,378.704 633.913,378.397 633.913,378.045C633.913,377.687 633.865,377.379 633.77,377.12C633.675,376.862 633.537,376.663 633.357,376.524C633.176,376.385 632.96,376.315 632.707,376.315C632.448,376.315 632.23,376.386 632.051,376.528C631.872,376.67 631.736,376.87 631.644,377.129C631.551,377.387 631.505,377.693 631.505,378.045C631.505,378.397 631.552,378.704 631.646,378.966C631.74,379.227 631.875,379.429 632.053,379.573C632.23,379.716 632.448,379.788 632.707,379.788Z" style="fill:white;fill-rule:nonzero;"/>
                    </g>
                    <g transform="matrix(6.31166,0,0,6.31166,-3075.35,-1651.3)">
                        <path d="M639.116,381.429C638.698,381.429 638.328,381.358 638.006,381.218C637.683,381.077 637.429,380.864 637.243,380.578C637.057,380.293 636.964,379.934 636.964,379.502C636.964,379.139 637.028,378.832 637.156,378.582C637.284,378.332 637.46,378.129 637.684,377.973C637.909,377.816 638.167,377.698 638.46,377.617C638.752,377.536 639.065,377.481 639.397,377.453C639.769,377.419 640.069,377.382 640.296,377.344C640.524,377.306 640.689,377.25 640.793,377.178C640.897,377.105 640.948,377.002 640.948,376.869L640.948,376.848C640.948,376.629 640.873,376.46 640.723,376.341C640.572,376.221 640.369,376.162 640.113,376.162C639.838,376.162 639.616,376.221 639.448,376.341C639.281,376.46 639.174,376.625 639.129,376.835L637.207,376.767C637.264,376.369 637.411,376.013 637.648,375.699C637.885,375.385 638.212,375.138 638.628,374.958C639.044,374.777 639.545,374.687 640.13,374.687C640.548,374.687 640.933,374.736 641.285,374.834C641.637,374.932 641.944,375.074 642.206,375.26C642.467,375.446 642.669,375.674 642.813,375.944C642.956,376.214 643.028,376.522 643.028,376.869L643.028,381.318L641.068,381.318L641.068,380.406L641.017,380.406C640.9,380.627 640.752,380.815 640.571,380.968C640.391,381.122 640.179,381.237 639.936,381.314C639.693,381.39 639.42,381.429 639.116,381.429ZM639.759,380.065C639.984,380.065 640.186,380.02 640.367,379.929C640.547,379.838 640.691,379.712 640.799,379.551C640.907,379.391 640.961,379.204 640.961,378.991L640.961,378.369C640.902,378.4 640.83,378.429 640.746,378.454C640.662,378.48 640.571,378.504 640.471,378.527C640.372,378.549 640.269,378.569 640.164,378.586C640.059,378.603 639.958,378.619 639.862,378.633C639.666,378.664 639.499,378.713 639.361,378.778C639.223,378.843 639.118,378.928 639.046,379.032C638.973,379.135 638.937,379.258 638.937,379.4C638.937,379.616 639.014,379.781 639.169,379.895C639.324,380.008 639.521,380.065 639.759,380.065Z" style="fill:white;fill-rule:nonzero;"/>
                    </g>
                </g>
            </g>
        </g>
        <g transform="matrix(1.61078,0,0,1.61078,289.864,-446.807)">
            <g transform="matrix(6.31166,0,0,6.31166,-3142.02,-1681.07)">
                <path d="M580.94,369.484C580.238,369.484 579.637,369.306 579.135,368.949C578.634,368.593 578.249,368.077 577.98,367.402C577.712,366.728 577.578,365.914 577.578,364.963C577.581,364.011 577.716,363.201 577.985,362.532C578.253,361.863 578.638,361.352 579.139,361C579.641,360.647 580.241,360.471 580.94,360.471C581.639,360.471 582.24,360.647 582.742,361C583.245,361.352 583.631,361.863 583.899,362.534C584.168,363.204 584.302,364.014 584.302,364.963C584.302,365.917 584.168,366.732 583.899,367.407C583.631,368.081 583.246,368.596 582.745,368.951C582.243,369.306 581.642,369.484 580.94,369.484ZM580.94,368.15C581.485,368.15 581.916,367.881 582.233,367.343C582.55,366.804 582.708,366.011 582.708,364.963C582.708,364.27 582.636,363.687 582.491,363.216C582.346,362.744 582.142,362.388 581.877,362.148C581.613,361.908 581.301,361.788 580.94,361.788C580.397,361.788 579.968,362.057 579.653,362.596C579.338,363.134 579.179,363.923 579.176,364.963C579.173,365.659 579.243,366.244 579.387,366.718C579.53,367.193 579.734,367.55 579.998,367.79C580.262,368.03 580.576,368.15 580.94,368.15Z" style="fill:white;fill-rule:nonzero;"/>
            </g>
            <g transform="matrix(0.566025,-0.566025,0.707107,0.707107,-216.018,476.405)">
                <rect x="485.141" y="622.543" width="80.114" height="9.075" style="fill:white;"/>
            </g>
        </g>
    </g>
</svg>
